<?xml version="1.0"?><svg xmlns="http://www.w3.org/2000/svg"  viewBox="0 0 50 50" width="50px" height="50px">    <path d="M 5 5 L 5 15 L 7 15 L 7 9.2910156 L 8.875 12.857422 L 10.001953 15 L 11.130859 12.857422 L 13 9.296875 L 13 15 L 15 15 L 15 5 L 13 5 L 10.003906 10.716797 L 7 5 L 5 5 z M 22.599609 5 C 21.165609 5 20 6.1666094 20 7.5996094 L 20 12.400391 C 20 13.833391 21.165609 15 22.599609 15 L 27.400391 15 C 28.834391 15 30 13.833391 30 12.400391 L 30 7.5996094 C 30 6.1666094 28.834391 5 27.400391 5 L 22.599609 5 z M 37.599609 5 C 36.165609 5 35 6.1666094 35 7.5996094 L 35 12.400391 C 35 13.833391 36.165609 15 37.599609 15 L 42.400391 15 C 43.834391 15 45 13.833391 45 12.400391 L 45 7.5996094 C 45 6.1666094 43.834391 5 42.400391 5 L 37.599609 5 z M 22.599609 7 L 27.400391 7 C 27.731391 7 28 7.2686094 28 7.5996094 L 28 12.400391 C 28 12.731391 27.731391 13 27.400391 13 L 22.599609 13 C 22.268609 13 22 12.731391 22 12.400391 L 22 7.5996094 C 22 7.2686094 22.268609 7 22.599609 7 z M 37.599609 7 L 42.400391 7 C 42.731391 7 43 7.2686094 43 7.5996094 L 43 12.400391 C 43 12.731391 42.731391 13 42.400391 13 L 37.599609 13 C 37.268609 13 37 12.731391 37 12.400391 L 37 7.5996094 C 37 7.2686094 37.268609 7 37.599609 7 z M 7.5996094 20 C 6.1656094 20 5 21.166609 5 22.599609 L 5 27.400391 C 5 28.833391 6.1656094 30 7.5996094 30 L 12.400391 30 C 13.834391 30 15 28.833391 15 27.400391 L 15 22.599609 C 15 21.166609 13.834391 20 12.400391 20 L 7.5996094 20 z M 22.599609 20 C 21.165609 20 20 21.165609 20 22.599609 L 20 27.400391 C 20 28.833391 21.165609 30 22.599609 30 L 27.400391 30 C 28.834391 30 30 28.833391 30 27.400391 L 30 22.599609 C 30 21.166609 28.834391 20 27.400391 20 L 22.599609 20 z M 37.599609 20 C 36.165609 20 35 21.165609 35 22.599609 L 35 27.400391 C 35 28.833391 36.165609 30 37.599609 30 L 42.400391 30 C 43.834391 30 45 28.833391 45 27.400391 L 45 22.599609 C 45 21.166609 43.834391 20 42.400391 20 L 37.599609 20 z M 7.5996094 22 L 12.400391 22 C 12.731391 22 13 22.268609 13 22.599609 L 13 27.400391 C 13 27.731391 12.731391 28 12.400391 28 L 7.5996094 28 C 7.2686094 28 7 27.731391 7 27.400391 L 7 22.599609 C 7 22.268609 7.2686094 22 7.5996094 22 z M 22.599609 22 L 27.400391 22 C 27.731391 22 28 22.268609 28 22.599609 L 28 27.400391 C 28 27.731391 27.731391 28 27.400391 28 L 22.599609 28 C 22.268609 28 22 27.731391 22 27.400391 L 22 22.599609 C 22 22.268609 22.268609 22 22.599609 22 z M 37.599609 22 L 42.400391 22 C 42.731391 22 43 22.268609 43 22.599609 L 43 27.400391 C 43 27.731391 42.731391 28 42.400391 28 L 37.599609 28 C 37.268609 28 37 27.731391 37 27.400391 L 37 22.599609 C 37 22.268609 37.268609 22 37.599609 22 z M 7.5996094 35 C 6.1656094 35 5 36.166609 5 37.599609 L 5 42.400391 C 5 43.833391 6.1656094 45 7.5996094 45 L 12.400391 45 C 13.834391 45 15 43.833391 15 42.400391 L 15 37.599609 C 15 36.166609 13.834391 35 12.400391 35 L 7.5996094 35 z M 22.599609 35 C 21.165609 35 20 36.165609 20 37.599609 L 20 42.400391 C 20 43.833391 21.165609 45 22.599609 45 L 27.400391 45 C 28.834391 45 30 43.833391 30 42.400391 L 30 37.599609 C 30 36.166609 28.834391 35 27.400391 35 L 22.599609 35 z M 37.599609 35 C 36.165609 35 35 36.165609 35 37.599609 L 35 42.400391 C 35 43.833391 36.165609 45 37.599609 45 L 42.400391 45 C 43.834391 45 45 43.833391 45 42.400391 L 45 37.599609 C 45 36.166609 43.834391 35 42.400391 35 L 37.599609 35 z M 7.5996094 37 L 12.400391 37 C 12.731391 37 13 37.268609 13 37.599609 L 13 42.400391 C 13 42.731391 12.731391 43 12.400391 43 L 7.5996094 43 C 7.2686094 43 7 42.731391 7 42.400391 L 7 37.599609 C 7 37.268609 7.2686094 37 7.5996094 37 z M 22.599609 37 L 27.400391 37 C 27.731391 37 28 37.268609 28 37.599609 L 28 42.400391 C 28 42.731391 27.731391 43 27.400391 43 L 22.599609 43 C 22.268609 43 22 42.731391 22 42.400391 L 22 37.599609 C 22 37.268609 22.268609 37 22.599609 37 z M 37.599609 37 L 42.400391 37 C 42.731391 37 43 37.268609 43 37.599609 L 43 42.400391 C 43 42.731391 42.731391 43 42.400391 43 L 37.599609 43 C 37.268609 43 37 42.731391 37 42.400391 L 37 37.599609 C 37 37.268609 37.268609 37 37.599609 37 z"/></svg>